<svg xmlns="http://www.w3.org/2000/svg" viewBox="0 0 64 64">
  <defs>
    <linearGradient id="goldArc" x1="0%" y1="0%" x2="100%" y2="100%">
      <stop offset="0%" stop-color="#E9C892"/>
      <stop offset="100%" stop-color="#B0813F"/>
    </linearGradient>
    <linearGradient id="navyArc" x1="100%" y1="100%" x2="0%" y2="0%">
      <stop offset="0%" stop-color="#1B3A5C"/>
      <stop offset="100%" stop-color="#0A1D34"/>
    </linearGradient>
    <linearGradient id="cubeTop" x1="0%" y1="0%" x2="100%" y2="100%">
      <stop offset="0%" stop-color="#E9C892"/>
      <stop offset="100%" stop-color="#C9A36B"/>
    </linearGradient>
    <linearGradient id="cubeLeft" x1="0%" y1="0%" x2="100%" y2="100%">
      <stop offset="0%" stop-color="#0F2A4A"/>
      <stop offset="100%" stop-color="#0A1D34"/>
    </linearGradient>
    <linearGradient id="cubeRight" x1="0%" y1="0%" x2="100%" y2="100%">
      <stop offset="0%" stop-color="#183A5E"/>
      <stop offset="100%" stop-color="#0F2A4A"/>
    </linearGradient>
  </defs>

  <rect width="64" height="64" rx="14" fill="#0A1D34"/>

  <path d="M20 20a12 12 0 0117-2" fill="none" stroke="url(#goldArc)" stroke-width="4.4" stroke-linecap="round"/>
  <path d="M33 13l5 3-4 5z" fill="url(#goldArc)"/>

  <path d="M44 44a12 12 0 01-17 2" fill="none" stroke="url(#navyArc)" stroke-width="4.4" stroke-linecap="round"/>
  <path d="M31 51l-5-3 4-5z" fill="url(#navyArc)"/>

  <g transform="translate(32,32)">
    <path d="M0 -9 L9 -4.5 L0 0 L-9 -4.5 Z" fill="url(#cubeTop)"/>
    <path d="M-9 -4.5 L0 0 L0 9 L-9 4.5 Z" fill="url(#cubeLeft)"/>
    <path d="M9 -4.5 L0 0 L0 9 L9 4.5 Z" fill="url(#cubeRight)"/>
  </g>
</svg>
